<?xml version="1.0" standalone="no"?>
<!DOCTYPE svg PUBLIC "-//W3C//DTD SVG 20010904//EN"
 "http://www.w3.org/TR/2001/REC-SVG-20010904/DTD/svg10.dtd">
<svg version="1.0" xmlns="http://www.w3.org/2000/svg"
 width="920.000000pt" height="920.000000pt" viewBox="0 0 920.000000 920.000000"
 preserveAspectRatio="xMidYMid meet">

<g transform="translate(0.000000,920.000000) scale(0.100000,-0.100000)"
fill="#000000" stroke="none">
<path d="M4515 7519 c-348 -24 -469 -45 -735 -128 -90 -28 -138 -45 -205 -76
-124 -56 -162 -74 -250 -123 -177 -100 -382 -270 -525 -438 -71 -82 -200 -261
-200 -277 0 -3 -22 -43 -48 -89 -26 -46 -58 -108 -71 -138 -12 -30 -34 -80
-48 -110 -14 -30 -39 -93 -54 -140 -16 -47 -40 -118 -54 -157 -14 -40 -30 -92
-35 -115 -5 -24 -15 -70 -24 -103 -8 -33 -21 -87 -29 -120 -8 -33 -23 -89 -32
-125 -32 -118 -15 -208 58 -315 15 -22 27 -43 27 -48 0 -7 -99 -156 -111 -167
-3 -3 -23 -34 -44 -70 -21 -36 -54 -86 -72 -112 -18 -26 -33 -51 -33 -56 0 -4
-23 -40 -50 -80 -28 -40 -50 -75 -50 -78 0 -3 -16 -29 -35 -58 -19 -29 -35
-56 -35 -59 0 -3 -16 -29 -35 -58 -19 -30 -35 -59 -35 -65 0 -6 -7 -17 -15
-24 -8 -7 -15 -22 -15 -34 0 -11 -7 -29 -15 -40 -12 -16 -11 -24 10 -66 21
-41 34 -53 87 -78 35 -16 74 -33 88 -37 56 -17 141 -67 157 -92 27 -40 24
-136 -5 -191 -34 -65 -29 -98 18 -143 22 -21 55 -42 72 -47 17 -4 33 -13 36
-20 2 -7 -22 -36 -53 -65 -68 -63 -67 -72 2 -138 25 -24 61 -58 79 -76 29 -28
34 -39 34 -80 0 -27 -6 -57 -13 -68 -21 -31 -65 -165 -73 -220 -16 -116 -2
-199 49 -279 31 -50 118 -126 143 -126 7 0 28 -6 46 -14 70 -30 183 -48 262
-41 41 3 90 10 108 16 18 5 53 9 78 9 25 0 63 5 85 10 42 9 80 15 180 26 33 3
69 8 80 10 42 8 123 -18 153 -50 41 -43 52 -82 68 -236 7 -74 15 -146 18 -160
2 -14 7 -58 11 -98 8 -96 32 -184 52 -199 13 -10 307 -13 1389 -13 1234 0
1374 2 1388 16 23 23 20 41 -17 98 -32 49 -90 180 -121 276 -65 202 -94 406
-95 665 0 221 24 458 64 630 27 114 117 275 230 410 236 282 297 364 371 493
30 53 59 104 64 112 8 13 52 107 100 215 10 22 32 85 49 140 96 307 96 311 95
690 0 288 -2 330 -21 415 -12 52 -26 109 -31 125 -6 17 -25 77 -43 135 -18 58
-45 130 -60 160 -15 30 -43 90 -64 133 -36 76 -107 189 -183 289 -147 195
-314 350 -532 494 -107 70 -112 73 -276 149 -111 52 -288 109 -419 135 -22 4
-74 15 -115 23 -151 32 -320 50 -650 70 -19 1 -75 -1 -125 -4z m342 -439 c27
-6 73 -28 103 -50 30 -21 75 -51 99 -66 l43 -26 42 23 c60 34 172 34 240 -1
54 -28 100 -78 117 -127 11 -35 33 -42 69 -23 28 15 88 15 136 2 27 -8 56 -28
86 -61 l45 -48 76 5 c69 4 82 2 131 -23 104 -53 159 -138 158 -248 l-1 -58 57
-25 c66 -29 95 -54 127 -109 31 -54 40 -114 25 -176 l-12 -50 35 -32 c45 -41
53 -80 29 -129 l-19 -37 46 -45 c79 -78 112 -160 118 -296 7 -124 -16 -229
-73 -347 -54 -112 -120 -162 -261 -199 -19 -5 -16 -22 7 -41 11 -10 20 -22 20
-28 0 -6 8 -26 19 -45 39 -75 53 -138 46 -208 -8 -86 -25 -121 -79 -169 -61
-54 -156 -83 -272 -83 -66 0 -96 4 -112 16 -35 24 -46 13 -60 -60 -33 -178
-204 -349 -363 -363 -46 -5 -73 -1 -121 17 -101 36 -145 67 -201 143 -15 20
-34 37 -41 37 -12 0 -65 -197 -81 -302 -8 -51 -47 -72 -116 -63 -50 7 -89 39
-89 73 0 9 -20 75 -44 147 -24 71 -54 162 -66 200 -31 95 -84 196 -132 250
-53 61 -71 69 -105 52 -16 -8 -65 -20 -110 -27 -71 -12 -91 -11 -155 3 -117
25 -164 51 -238 126 -81 82 -117 153 -132 261 -10 63 -9 90 1 130 18 71 4 82
-45 37 -80 -71 -181 -102 -311 -95 -115 6 -198 35 -276 97 -121 95 -187 217
-192 355 -1 40 -5 78 -9 84 -3 5 -30 23 -59 40 -135 76 -206 213 -194 376 13
173 76 266 236 348 91 46 93 49 112 121 15 59 39 91 95 127 34 21 52 44 84
107 82 160 202 244 382 268 49 7 180 -19 213 -41 36 -26 61 -17 89 30 30 51
80 97 139 128 34 18 59 22 137 23 81 0 105 -4 162 -27 36 -16 74 -28 82 -28 9
0 33 15 53 33 109 96 192 122 310 97z"/>
<path d="M4785 6389 c-126 -16 -215 -59 -293 -141 -78 -82 -118 -156 -133
-246 -5 -36 -12 -68 -14 -72 -2 -4 2 -15 9 -25 11 -16 29 -18 139 -18 85 0
132 4 142 13 8 6 17 39 21 73 6 58 10 66 59 115 41 41 59 52 86 53 139 6 188
-14 213 -88 28 -81 17 -159 -29 -215 -13 -15 -49 -48 -81 -74 -135 -110 -190
-199 -201 -329 -5 -69 -4 -80 12 -91 25 -19 224 -19 247 -1 10 7 18 33 20 70
6 77 41 124 154 209 135 102 176 158 204 283 19 82 18 101 -4 176 -61 206
-302 340 -551 308z"/>
<path d="M4685 5204 c-12 -12 -15 -43 -15 -144 0 -71 3 -135 6 -144 5 -14 29
-16 160 -16 140 0 154 2 155 18 3 78 -1 285 -6 290 -4 4 -69 8 -146 9 -112 1
-142 -1 -154 -13z"/>
</g>
</svg>
