<?xml version="1.0" standalone="no"?>
<!DOCTYPE svg PUBLIC "-//W3C//DTD SVG 20010904//EN"
 "http://www.w3.org/TR/2001/REC-SVG-20010904/DTD/svg10.dtd">
<svg version="1.0" xmlns="http://www.w3.org/2000/svg"
 width="1920.000000pt" height="1920.000000pt" viewBox="0 0 1920.000000 1920.000000"
 preserveAspectRatio="xMidYMid meet">

<g transform="translate(0.000000,1920.000000) scale(0.100000,-0.100000)"
fill="#000000" stroke="none">
<path d="M3460 16284 c-37 -4 -139 -21 -179 -29 -58 -11 -136 -38 -208 -71
-105 -49 -246 -141 -237 -156 4 -7 3 -8 -4 -4 -7 4 -12 2 -12 -4 0 -6 -4 -9
-8 -6 -12 7 -134 -118 -125 -129 4 -4 3 -5 -4 -1 -13 7 -122 -153 -165 -245
-41 -85 -75 -194 -92 -294 -19 -107 -21 -283 -4 -357 6 -29 11 -57 10 -61 -5
-17 50 -182 84 -256 41 -89 143 -243 155 -235 5 3 8 2 7 -3 -7 -23 159 -182
183 -175 5 1 8 -3 7 -8 -2 -6 35 -35 81 -64 l84 -52 -4 -70 c-7 -124 -2 -347
10 -439 7 -49 15 -104 17 -122 9 -73 61 -260 97 -353 41 -107 63 -150 72 -142
5 4 5 2 1 -5 -6 -10 15 -56 34 -73 3 -3 11 -18 18 -35 25 -56 74 -125 85 -118
6 4 7 1 3 -6 -5 -7 0 -21 10 -32 17 -19 29 -93 13 -83 -11 6 -62 -81 -129
-220 -182 -378 -222 -827 -104 -1191 37 -116 113 -267 183 -365 71 -99 199
-233 214 -223 6 3 7 1 3 -5 -3 -6 3 -16 14 -22 11 -6 20 -17 20 -24 0 -7 -25
-88 -54 -178 -67 -202 -179 -614 -192 -708 -2 -14 -13 -61 -23 -105 -39 -154
-107 -561 -145 -855 -36 -281 -47 -407 -58 -643 -31 -705 66 -1354 294 -1974
17 -46 34 -80 39 -77 5 3 6 -1 4 -8 -7 -17 55 -160 142 -333 75 -149 87 -168
98 -157 5 4 5 1 1 -6 -8 -13 41 -101 121 -220 24 -35 43 -67 43 -72 0 -5 10
-16 23 -25 12 -8 20 -17 17 -18 -3 -2 23 -42 58 -90 35 -48 68 -85 73 -82 5 3
6 0 4 -7 -3 -8 10 -30 29 -51 18 -20 41 -48 50 -62 9 -14 22 -23 28 -19 6 4 8
3 5 -4 -15 -23 432 -480 455 -466 6 4 8 3 5 -3 -4 -6 19 -30 50 -54 31 -24 72
-58 92 -75 37 -32 190 -147 231 -174 13 -8 42 -29 66 -47 56 -42 100 -64 109
-55 3 4 5 1 3 -6 -4 -17 139 -105 154 -96 6 4 8 3 5 -3 -6 -10 27 -30 231
-145 19 -10 38 -15 44 -12 6 4 8 2 5 -3 -7 -11 107 -68 130 -66 7 0 10 -4 6
-10 -4 -7 0 -8 13 -3 10 4 15 4 12 0 -10 -9 111 -66 124 -57 7 4 8 1 3 -7 -6
-10 -4 -12 9 -7 9 4 15 3 12 -2 -3 -4 36 -25 87 -46 50 -20 101 -41 112 -45
11 -5 45 -19 75 -31 30 -12 69 -27 85 -34 41 -18 396 -137 520 -174 140 -43
568 -147 635 -155 14 -2 32 -6 40 -9 22 -8 169 -37 215 -42 22 -3 47 -7 55
-10 98 -29 839 -118 1080 -130 52 -3 183 -10 290 -17 264 -15 939 -15 1240 0
832 44 1598 160 2195 334 55 16 111 31 125 33 60 10 567 187 685 239 17 7 72
30 122 51 54 22 90 42 86 48 -3 6 -1 7 6 3 16 -10 383 173 374 187 -3 6 -1 7
6 3 10 -6 263 132 281 153 3 3 21 15 40 25 19 11 58 37 87 58 29 21 57 38 62
38 5 0 16 8 23 19 7 10 17 18 22 18 17 0 187 134 181 143 -3 5 0 8 7 5 7 -3
31 11 53 30 22 20 45 39 50 43 60 44 104 86 98 95 -3 5 -2 7 4 4 14 -9 95 63
89 79 -3 7 0 11 7 8 17 -6 150 123 141 137 -4 7 -3 9 3 6 12 -7 136 116 127
126 -4 4 0 7 8 7 9 0 22 10 31 23 8 12 37 47 63 78 83 95 169 210 168 225 -1
8 2 12 6 9 5 -3 18 8 30 25 12 16 19 30 16 30 -3 0 2 9 12 19 32 37 42 50 42
61 0 5 4 10 8 10 8 0 35 46 36 63 1 4 6 11 12 15 7 4 29 36 50 72 21 36 47 79
56 95 10 17 58 111 107 210 246 496 386 1007 443 1615 27 288 14 835 -27 1150
-27 206 -57 405 -63 420 -3 8 -5 18 -4 21 2 11 -27 173 -54 299 -14 69 -30
145 -35 168 -27 135 -116 460 -130 478 -5 6 -7 13 -4 16 5 5 -81 283 -93 303
-4 6 -7 12 -7 15 -2 18 -40 119 -51 138 -8 12 -12 22 -9 22 6 0 -34 106 -81
218 l-36 82 59 63 c383 411 454 1091 173 1673 -67 139 -118 226 -129 220 -16
-10 -4 64 13 83 10 11 15 25 10 32 -4 7 -3 10 3 6 11 -7 60 62 85 118 7 17 15
32 18 35 19 17 40 63 34 73 -4 7 -4 9 1 5 9 -8 31 35 72 142 36 93 88 280 97
353 2 18 10 73 17 122 12 92 17 315 10 439 l-4 70 84 52 c46 29 83 58 81 64
-1 5 2 9 7 8 24 -7 190 152 183 175 -1 5 2 6 7 3 10 -7 105 132 145 212 101
200 140 471 101 695 -30 167 -75 283 -171 433 -55 86 -201 247 -215 238 -5 -3
-9 0 -9 6 0 6 -5 8 -12 4 -7 -4 -8 -3 -4 4 9 15 -132 107 -237 156 -72 33
-151 60 -208 71 -13 3 -51 10 -84 16 -143 28 -368 10 -525 -41 -94 -30 -271
-120 -264 -132 4 -6 3 -8 -3 -5 -11 7 -93 -50 -93 -64 0 -6 -4 -8 -8 -5 -5 3
-26 -13 -47 -34 -22 -22 -35 -40 -31 -40 5 0 3 -7 -4 -15 -7 -8 -16 -13 -20
-10 -12 8 -63 -52 -55 -66 5 -7 4 -10 -3 -5 -14 8 -94 -103 -87 -122 2 -7 0
-10 -5 -7 -18 11 -97 -174 -129 -300 -28 -109 -30 -134 -30 -275 1 -100 6
-176 16 -215 26 -109 56 -205 63 -205 4 0 7 -6 7 -13 0 -23 44 -108 102 -197
67 -101 193 -231 276 -286 33 -21 63 -43 66 -48 4 -5 13 -5 20 -1 8 5 11 4 6
0 -17 -19 171 -101 312 -137 111 -28 333 -35 442 -14 41 8 76 12 79 9 9 -9 3
-301 -9 -398 -16 -127 -50 -267 -95 -386 -19 -51 -32 -98 -29 -103 4 -6 2 -8
-2 -3 -5 4 -15 -7 -22 -24 -19 -46 -124 -219 -132 -219 -4 0 -22 16 -41 35
-18 18 -38 33 -44 32 -6 -1 -10 3 -9 9 3 15 -70 85 -93 88 -11 2 -19 9 -19 17
-1 8 -7 13 -14 11 -7 -1 -10 2 -6 7 7 12 -65 62 -78 54 -6 -3 -7 -1 -4 4 5 8
-102 93 -118 93 -2 0 -21 12 -42 26 -64 44 -193 105 -206 98 -7 -4 -9 -4 -5 1
18 19 -229 102 -406 137 -89 17 -148 22 -296 22 -102 1 -214 -3 -250 -8 -154
-20 -448 -115 -433 -139 3 -6 1 -7 -5 -3 -14 9 -63 -14 -55 -27 3 -6 1 -7 -6
-3 -6 4 -38 -10 -73 -34 l-61 -41 -60 31 c-32 16 -64 27 -69 23 -6 -3 -8 -2
-5 4 12 20 -646 301 -738 315 -11 2 -26 7 -33 12 -31 19 -401 127 -586 170
-143 34 -360 79 -436 91 -19 3 -69 12 -110 20 -175 33 -555 77 -875 102 -279
22 -1206 25 -1475 5 -96 -7 -215 -15 -265 -18 -190 -12 -581 -58 -835 -98
-186 -30 -369 -67 -600 -121 -173 -40 -462 -125 -640 -187 -284 -99 -606 -237
-592 -253 4 -5 2 -5 -5 -1 -15 9 -84 -24 -76 -37 3 -6 1 -7 -5 -4 -5 4 -37 -7
-69 -23 l-60 -31 -61 41 c-35 24 -67 38 -73 34 -7 -4 -9 -3 -6 3 8 13 -41 36
-55 27 -6 -4 -8 -3 -5 3 15 24 -279 119 -433 139 -36 5 -148 9 -250 8 -147 0
-208 -5 -296 -22 -176 -35 -424 -118 -406 -137 4 -5 2 -5 -5 -1 -13 7 -142
-54 -206 -98 -21 -14 -40 -26 -42 -26 -16 0 -123 -85 -118 -93 3 -5 2 -7 -4
-4 -13 8 -85 -42 -78 -54 4 -5 1 -8 -6 -7 -7 2 -13 -3 -14 -11 0 -8 -8 -15
-19 -17 -23 -3 -96 -73 -93 -88 1 -6 -3 -10 -9 -9 -6 1 -26 -14 -44 -32 -19
-19 -37 -35 -41 -35 -9 0 -102 152 -127 209 -10 22 -22 38 -27 33 -5 -4 -6 -2
-2 4 3 5 -10 52 -29 103 -45 119 -79 259 -95 386 -12 97 -18 389 -9 398 3 3
39 -2 80 -9 112 -20 333 -13 441 14 141 36 329 118 312 137 -5 4 -2 5 4 1 7
-4 18 -2 25 3 7 6 42 32 78 58 153 110 296 292 365 465 15 37 27 73 29 80 1 7
5 18 8 24 4 6 17 53 28 105 19 82 21 116 17 264 -5 174 -16 237 -67 372 -32
85 -80 174 -90 168 -5 -3 -7 0 -5 7 7 19 -73 130 -87 122 -7 -5 -8 -2 -3 5 8
14 -43 74 -55 66 -4 -3 -13 2 -20 10 -7 8 -9 15 -4 15 4 0 -9 18 -31 40 -21
21 -42 37 -47 34 -4 -3 -8 -1 -8 5 0 14 -82 71 -93 64 -6 -3 -7 -1 -3 5 4 7
-3 14 -19 18 -14 3 -25 10 -25 14 0 10 -138 73 -220 99 -118 40 -332 67 -430
55z m318 -284 c98 -29 223 -86 261 -119 13 -11 29 -18 35 -14 6 3 8 3 4 -2 -8
-8 42 -52 54 -47 5 1 7 -1 6 -5 -1 -5 19 -30 45 -58 101 -107 174 -241 213
-393 23 -88 25 -110 20 -237 -5 -152 -22 -227 -75 -342 -17 -35 -31 -67 -33
-71 -1 -4 -5 -11 -10 -17 -4 -5 -28 -37 -52 -70 -59 -80 -136 -153 -218 -208
-37 -24 -64 -48 -60 -52 4 -5 2 -5 -5 -2 -16 10 -44 -3 -36 -16 3 -5 1 -7 -5
-3 -6 3 -39 -5 -75 -18 -236 -89 -496 -70 -727 52 -25 13 -50 28 -57 34 -7 5
-17 7 -23 3 -6 -4 -9 -2 -8 3 2 5 -24 32 -57 59 -33 28 -75 69 -94 92 -19 22
-37 38 -41 36 -4 -2 -7 1 -7 8 0 21 -35 67 -46 60 -6 -3 -7 -1 -3 5 4 7 -4 31
-18 54 -62 107 -106 280 -106 416 0 165 59 366 141 483 10 14 15 30 11 35 -4
5 -3 6 2 2 11 -10 57 52 49 65 -3 6 -2 7 3 4 6 -3 30 15 54 40 25 25 64 59 88
76 23 17 42 34 42 39 0 4 3 7 8 6 4 -1 39 14 78 34 72 37 204 83 259 91 17 3
89 4 161 4 112 0 144 -4 222 -27z m12136 -5 c44 -14 111 -42 148 -61 37 -19
70 -34 73 -34 3 0 13 -8 23 -17 11 -10 44 -38 74 -63 150 -122 268 -334 297
-537 28 -189 -9 -402 -95 -551 -14 -23 -22 -47 -18 -54 4 -6 3 -8 -3 -5 -11 7
-46 -39 -46 -60 0 -7 -3 -10 -7 -8 -4 2 -22 -14 -41 -36 -19 -23 -61 -64 -94
-92 -33 -27 -59 -54 -57 -59 1 -5 -2 -7 -8 -3 -6 4 -16 2 -23 -3 -7 -6 -32
-21 -57 -34 -382 -202 -831 -112 -1107 222 -67 81 -145 240 -172 349 -39 159
-25 367 35 519 47 118 167 295 219 325 9 4 12 14 9 20 -4 7 -4 9 0 5 10 -8
102 62 98 74 -1 5 2 7 8 3 5 -3 23 3 40 15 42 30 112 60 215 91 85 26 99 27
250 25 143 -3 168 -6 239 -31z m-12993 -1482 c13 -16 12 -17 -3 -4 -10 7 -18
15 -18 17 0 8 8 3 21 -13z m13379 13 c0 -2 -8 -10 -17 -17 -16 -13 -17 -12 -4
4 13 16 21 21 21 13z m-5888 -715 c356 -22 755 -73 1078 -136 271 -53 495
-107 684 -164 55 -17 103 -28 107 -25 4 2 9 0 11 -4 5 -13 249 -92 262 -85 6
3 8 2 3 -2 -8 -9 132 -67 144 -60 4 3 9 0 11 -6 2 -6 15 -12 30 -12 14 -1 24
-5 23 -8 -6 -9 146 -69 158 -62 5 3 7 1 3 -5 -3 -6 4 -14 16 -18 32 -9 320
-154 398 -199 36 -21 71 -38 78 -38 6 0 12 -3 12 -7 0 -7 80 -54 93 -55 4 0
12 -6 16 -14 5 -8 14 -10 22 -6 8 5 11 4 6 0 -4 -5 48 -45 116 -89 67 -45 142
-96 165 -114 23 -19 42 -31 42 -28 0 3 10 -5 23 -17 13 -12 59 -50 102 -84 44
-35 95 -76 114 -93 18 -16 37 -27 42 -24 5 3 8 2 7 -3 -4 -11 222 -229 234
-226 4 2 8 -2 8 -8 0 -7 33 -46 74 -88 41 -42 91 -95 111 -118 21 -23 42 -40
48 -36 6 4 7 1 2 -6 -8 -14 29 -54 41 -43 4 4 4 1 0 -5 -4 -8 10 -30 35 -55
23 -24 36 -34 28 -23 -13 18 -12 19 3 7 9 -8 15 -19 12 -26 -3 -7 7 -24 20
-39 14 -15 26 -31 27 -35 3 -9 49 -70 74 -97 11 -11 21 -25 23 -30 1 -6 17
-30 35 -55 17 -24 68 -102 113 -172 45 -70 85 -124 89 -120 5 4 5 2 2 -4 -6
-10 84 -180 102 -194 3 -3 7 -9 8 -15 5 -30 151 -304 158 -298 4 5 5 2 1 -4
-4 -7 6 -41 22 -75 29 -63 145 -351 177 -440 10 -26 21 -46 25 -43 4 2 5 -7 2
-22 -4 -20 -2 -24 8 -18 10 6 12 4 7 -8 -3 -9 5 -47 18 -84 13 -37 38 -117 55
-178 18 -60 37 -115 41 -121 5 -6 7 -13 5 -15 -3 -2 4 -36 14 -74 11 -39 20
-74 20 -78 0 -5 4 -5 10 -2 5 3 7 0 5 -8 -3 -7 10 -83 29 -169 40 -178 77
-362 100 -498 28 -165 56 -353 60 -405 3 -27 12 -120 22 -205 18 -172 25 -669
11 -874 -22 -342 -97 -728 -203 -1048 -20 -59 -32 -113 -28 -120 4 -7 3 -10
-1 -5 -8 7 -75 -152 -78 -185 -1 -9 -3 -15 -5 -13 -7 7 -95 -187 -96 -212 -1
-11 -4 -19 -8 -17 -11 7 -30 -35 -22 -49 4 -6 3 -9 -1 -4 -5 4 -34 -39 -65
-95 -60 -110 -148 -253 -187 -304 -12 -17 -23 -36 -23 -42 0 -6 -4 -12 -8 -14
-19 -8 -63 -78 -56 -89 4 -7 3 -9 -3 -6 -6 4 -51 -44 -101 -106 -50 -61 -104
-126 -121 -144 -17 -18 -31 -35 -31 -39 0 -3 -11 -15 -25 -26 -14 -11 -22 -25
-18 -31 3 -7 2 -8 -2 -4 -11 9 -196 -173 -189 -185 3 -5 0 -7 -8 -6 -7 2 -12
-3 -10 -10 1 -6 -1 -11 -5 -10 -16 5 -53 -23 -47 -35 4 -7 3 -9 -1 -4 -11 10
-46 -23 -38 -36 3 -5 1 -7 -4 -4 -6 4 -37 -14 -69 -41 -79 -64 -84 -68 -76
-77 4 -5 2 -5 -4 -2 -6 3 -35 -13 -65 -37 -138 -107 -427 -299 -530 -351 -45
-23 -49 -28 -37 -43 11 -15 11 -16 -3 -4 -17 13 -53 6 -43 -9 3 -5 -3 -6 -12
-2 -13 5 -15 3 -9 -7 5 -9 4 -11 -3 -6 -7 4 -38 -8 -71 -27 -32 -19 -68 -38
-80 -42 -12 -3 -18 -11 -15 -17 4 -6 2 -8 -3 -5 -14 9 -175 -67 -166 -78 5 -4
3 -5 -4 -1 -7 4 -29 -2 -50 -12 -56 -29 -237 -102 -252 -102 -7 0 -9 -5 -5
-12 4 -6 3 -8 -3 -5 -5 3 -62 -14 -126 -38 -136 -52 -412 -140 -577 -186 -103
-28 -135 -37 -143 -39 -8 -3 -86 -21 -107 -26 -14 -3 -50 -11 -80 -19 -141
-36 -572 -114 -790 -144 -525 -71 -966 -101 -1560 -104 -272 -2 -764 9 -870
18 -25 2 -130 11 -235 20 -330 27 -599 61 -889 111 -76 13 -142 21 -147 19 -4
-3 -10 -1 -13 4 -3 4 -25 11 -48 15 -52 8 -319 66 -327 71 -3 1 -22 6 -41 9
-19 3 -59 13 -89 21 -30 9 -63 14 -73 11 -11 -2 -17 -2 -13 2 3 4 -29 17 -72
29 -43 12 -109 31 -147 42 -38 11 -72 18 -77 16 -4 -3 -9 -1 -11 3 -1 5 -68
30 -148 56 -347 115 -786 308 -1037 457 -47 27 -90 46 -96 43 -7 -4 -9 -4 -5
1 4 4 -50 44 -120 88 -70 45 -151 98 -181 119 -29 21 -58 35 -63 32 -4 -3 -7
-1 -6 4 3 11 -165 142 -182 142 -6 0 -8 5 -5 10 6 9 -8 14 -28 11 -5 -1 -6 3
-3 8 7 11 -59 62 -69 53 -5 -4 -5 -2 -2 4 9 15 -29 48 -44 38 -7 -4 -10 -3 -6
3 6 10 -21 42 -30 36 -1 -2 -3 0 -4 5 -1 15 -32 41 -42 35 -5 -3 -7 -1 -4 4 7
11 -20 28 -38 24 -5 -2 -6 1 -2 5 9 10 -143 165 -155 158 -4 -3 -8 2 -8 11 0
9 -4 14 -9 10 -5 -3 -13 0 -17 6 -4 8 -3 9 4 5 25 -15 10 12 -26 47 -21 21
-42 34 -47 30 -4 -5 -5 -3 -2 3 8 15 -22 56 -35 48 -6 -4 -8 -2 -5 3 8 13 -17
36 -28 25 -5 -4 -5 -2 -1 5 4 7 -26 53 -70 110 -223 285 -463 709 -560 990
-10 28 -21 50 -25 47 -4 -2 -6 2 -5 9 0 6 -18 68 -40 137 -106 318 -161 578
-206 955 -19 160 -22 243 -23 530 0 351 5 425 51 805 36 297 78 555 129 800
14 69 28 136 31 150 12 57 94 384 114 450 12 40 19 79 15 88 -3 9 -3 13 1 9 4
-4 33 71 64 165 31 95 73 217 94 270 21 53 39 103 40 110 2 7 15 40 30 73 15
33 39 87 53 120 42 99 173 366 210 427 19 32 31 63 27 69 -4 7 -3 9 3 6 5 -3
27 24 48 61 101 175 295 447 444 621 44 52 78 99 74 105 -3 6 -2 8 2 3 12 -10
106 83 98 97 -3 6 -2 8 2 3 5 -4 58 42 119 102 129 127 174 165 356 304 162
123 171 129 281 198 32 20 56 39 54 43 -3 3 -2 4 1 1 9 -6 64 23 64 34 0 4 6
8 13 8 6 0 57 26 112 58 113 65 379 195 461 226 30 11 54 25 54 30 0 6 5 7 10
4 6 -3 27 2 48 13 20 11 73 32 117 47 189 64 235 82 228 90 -5 4 -3 5 4 1 7
-4 81 13 165 38 419 122 825 204 1303 260 226 27 538 53 790 65 224 11 1126 6
1337 -8z m4048 -526 c118 -21 258 -61 371 -108 84 -35 246 -124 282 -155 9 -8
17 -11 17 -6 0 5 4 4 8 -1 4 -6 45 -40 92 -76 321 -249 551 -629 616 -1018 41
-245 2 -544 -96 -742 -34 -69 -112 -190 -134 -209 -21 -17 -24 -14 -82 95 -79
151 -206 370 -218 377 -6 4 -7 8 -3 8 9 0 -71 121 -87 132 -6 4 -7 8 -3 8 5 0
-4 17 -20 38 -16 20 -40 54 -52 75 -13 21 -28 43 -35 50 -7 6 -21 26 -31 44
-10 18 -23 29 -28 26 -6 -3 -7 -2 -4 3 12 20 -367 468 -387 457 -6 -3 -8 -3
-4 2 15 16 -274 301 -294 289 -6 -4 -8 -3 -5 3 11 18 -278 257 -297 246 -5 -3
-6 -1 -2 5 7 11 -32 38 -47 34 -5 -1 -6 2 -2 8 3 5 2 10 -4 10 -5 0 -16 6 -23
13 -37 36 -138 98 -149 91 -8 -4 -10 -3 -5 4 6 10 -57 56 -191 139 -13 7 -23
17 -23 22 0 11 113 64 193 90 110 35 205 53 322 60 146 8 211 5 325 -14z
m-9169 -23 c114 -29 252 -82 277 -106 10 -10 -9 -27 -98 -84 -71 -46 -109 -76
-104 -83 4 -8 3 -9 -5 -5 -21 13 -340 -231 -333 -255 1 -6 -2 -8 -8 -4 -14 8
-57 -30 -257 -227 -90 -88 -160 -165 -156 -171 3 -5 2 -7 -4 -4 -5 3 -18 -4
-28 -16 -53 -64 -121 -143 -125 -147 -19 -17 -59 -78 -55 -83 3 -4 2 -5 -1 -2
-24 17 -436 -608 -418 -636 4 -7 3 -9 -3 -6 -11 7 -243 -450 -243 -478 0 -2
-9 -25 -20 -50 l-20 -48 -54 54 c-29 30 -59 64 -65 77 -7 12 -16 20 -20 18 -4
-3 -8 0 -8 7 0 7 -18 41 -41 77 -116 184 -182 466 -162 695 24 273 85 451 258
749 9 16 24 37 32 46 8 10 37 46 65 81 80 103 212 228 330 314 61 44 122 86
135 94 161 94 359 170 536 205 123 24 129 24 309 21 151 -2 183 -6 286 -33z
m144 -242 c3 -6 -1 -7 -9 -4 -18 7 -21 14 -7 14 6 0 13 -4 16 -10z m-2087
-2115 c-3 -3 -9 2 -12 12 -6 14 -5 15 5 6 7 -7 10 -15 7 -18z m12515 10 c-3
-9 -8 -14 -10 -11 -3 3 -2 9 2 15 9 16 15 13 8 -4z"/>
<path d="M8455 11650 c-115 -4 -268 -10 -340 -14 -71 -3 -195 -8 -275 -11
-160 -7 -494 -29 -665 -45 -104 -10 -331 -46 -345 -55 -4 -2 -22 -7 -41 -10
-82 -14 -332 -93 -337 -107 -2 -4 -7 -6 -12 -3 -8 5 -39 -7 -147 -57 -27 -12
-50 -22 -53 -22 -28 -6 -118 -61 -113 -69 3 -6 1 -7 -5 -3 -17 10 -152 -65
-286 -158 -32 -23 -74 -51 -93 -64 -30 -20 -33 -25 -21 -40 12 -15 11 -16 -4
-4 -15 12 -26 7 -92 -47 -121 -99 -186 -162 -179 -174 3 -5 2 -7 -4 -4 -13 8
-106 -87 -96 -98 5 -4 3 -5 -3 -2 -6 3 -31 -15 -55 -40 -24 -25 -37 -43 -29
-39 8 4 6 0 -5 -9 -11 -9 -19 -21 -17 -26 1 -6 -2 -8 -7 -5 -5 3 -21 -9 -36
-26 -14 -18 -33 -41 -41 -51 -17 -21 -18 -31 -2 -21 7 4 8 3 4 -5 -4 -6 -11
-9 -16 -6 -12 7 -41 -36 -33 -48 3 -6 1 -7 -4 -4 -6 4 -23 -12 -39 -36 -16
-23 -32 -44 -35 -47 -8 -7 -110 -165 -142 -220 -99 -171 -183 -342 -234 -475
-60 -153 -114 -316 -108 -325 3 -5 1 -10 -4 -12 -9 -3 -68 -233 -95 -373 -48
-240 -70 -619 -57 -940 3 -87 36 -352 57 -465 47 -258 202 -765 224 -731 3 7
7 -1 7 -16 0 -35 120 -286 133 -278 6 4 7 -1 3 -11 -5 -13 -3 -15 7 -9 9 5 11
4 6 -4 -9 -13 41 -101 147 -261 87 -132 103 -151 112 -142 3 4 5 2 4 -3 -6
-18 21 -56 34 -49 7 4 9 4 5 -1 -10 -11 51 -87 64 -79 7 5 8 2 3 -5 -9 -15 33
-63 48 -54 6 3 7 1 3 -5 -8 -14 83 -113 97 -105 6 3 7 2 4 -4 -9 -15 200 -213
230 -217 10 -2 18 -8 18 -15 0 -14 26 -32 37 -25 5 3 7 0 6 -7 -2 -7 53 -52
122 -102 400 -286 850 -470 1350 -551 250 -40 640 -83 960 -106 80 -6 159 -12
175 -15 17 -2 86 -7 155 -10 69 -3 161 -8 205 -10 44 -3 175 -10 290 -17 335
-19 1543 -16 1895 5 476 29 703 47 920 72 69 8 148 17 175 20 89 10 268 34
370 51 196 32 495 109 495 126 0 5 4 7 9 4 14 -9 253 78 336 122 17 9 33 16
36 17 22 1 107 50 102 58 -3 6 -1 7 6 3 20 -13 295 150 445 265 33 24 71 53
85 63 76 57 120 99 114 108 -3 6 -1 8 5 4 14 -8 134 103 125 117 -3 5 -2 7 4
4 5 -3 50 35 99 86 100 104 187 206 164 192 -8 -5 4 10 28 34 23 24 39 48 35
54 -3 7 -3 9 2 5 11 -10 38 29 30 42 -4 6 -1 9 5 8 7 -2 17 6 23 17 7 10 18
25 25 33 39 42 166 258 242 412 290 581 413 1264 355 1965 -19 227 -115 712
-138 698 -6 -3 -7 -1 -3 6 10 15 -44 192 -55 185 -5 -3 -6 2 -3 10 13 33 -228
572 -249 559 -6 -3 -7 -1 -4 4 10 15 -166 303 -184 303 -5 0 -9 5 -9 11 0 20
-61 99 -72 93 -6 -4 -8 -3 -5 3 4 5 -2 19 -12 29 -9 11 -22 27 -27 36 -36 64
-359 392 -376 382 -6 -4 -8 -3 -5 3 7 11 -121 120 -135 116 -4 -2 -8 1 -8 6 0
17 -236 179 -252 173 -5 -1 -8 2 -8 7 0 22 -362 204 -405 204 -16 0 -24 2 -16
5 8 3 1 10 -19 18 -17 8 -36 11 -41 8 -5 -3 -9 -1 -9 4 0 15 -265 94 -420 126
-204 41 -614 75 -1095 91 -99 4 -274 11 -390 17 -257 12 -2339 19 -2630 8z
m2180 -250 c752 -22 986 -31 1291 -50 438 -27 606 -52 856 -131 70 -22 131
-39 134 -39 4 1 10 -2 13 -7 3 -4 33 -19 66 -32 177 -70 462 -239 630 -374 44
-36 84 -62 89 -59 5 3 6 0 3 -5 -8 -12 63 -70 78 -65 5 2 7 0 3 -4 -9 -8 221
-250 234 -246 5 1 7 -2 3 -8 -4 -6 13 -34 37 -63 296 -351 547 -901 648 -1417
76 -390 88 -821 34 -1190 -26 -181 -62 -350 -104 -489 -22 -73 -37 -138 -33
-144 3 -5 1 -7 -5 -3 -6 3 -13 -6 -17 -24 -20 -92 -165 -401 -269 -573 -91
-152 -239 -355 -328 -451 -9 -10 -15 -24 -11 -29 3 -6 2 -7 -4 -4 -5 3 -47
-33 -94 -80 -394 -400 -877 -673 -1424 -808 -116 -28 -352 -70 -458 -81 -37
-3 -70 -10 -73 -15 -3 -5 -9 -7 -14 -4 -8 5 -51 1 -280 -25 -47 -6 -139 -15
-205 -20 -66 -5 -172 -14 -235 -19 -63 -6 -167 -13 -230 -16 -63 -3 -198 -10
-300 -16 -456 -25 -1346 -22 -1860 6 -47 3 -139 7 -205 10 -144 6 -466 30
-700 51 -93 9 -188 17 -210 19 -75 6 -400 45 -505 61 -364 55 -716 177 -1042
361 -47 27 -93 55 -102 62 -8 7 -21 9 -27 5 -7 -4 -9 -3 -6 3 9 14 -70 66 -85
57 -6 -4 -8 -3 -5 3 4 6 -6 19 -21 29 -45 29 -207 160 -268 216 -31 29 -61 52
-66 50 -5 -1 -7 1 -4 6 3 5 -6 20 -21 33 -14 13 -62 65 -107 114 -44 50 -84
89 -88 88 -5 -2 -7 1 -5 6 1 5 -34 58 -79 117 -329 444 -529 961 -605 1561
-27 217 -29 609 -5 813 53 435 158 800 330 1149 25 51 43 98 39 105 -3 6 -3 8
2 4 12 -11 38 29 29 45 -4 6 -4 9 1 5 4 -4 35 39 69 95 52 85 153 235 183 272
5 6 26 32 48 60 84 105 268 294 376 388 145 125 373 275 557 366 90 45 299
131 357 147 6 1 48 14 95 27 192 56 400 88 650 102 52 3 151 10 220 15 181 13
408 22 975 40 358 11 1682 11 2050 0z"/>
<path d="M6880 9594 c-131 -22 -328 -99 -386 -152 -11 -9 -38 -30 -60 -45 -45
-31 -132 -119 -161 -164 -9 -15 -20 -30 -24 -33 -3 -3 -14 -21 -24 -40 -10
-19 -21 -37 -25 -40 -13 -10 -71 -162 -90 -236 -27 -108 -26 -316 1 -422 34
-132 67 -209 131 -305 55 -80 98 -128 111 -120 5 3 7 2 4 -4 -9 -14 70 -86 85
-77 7 4 8 3 4 -4 -14 -23 228 -160 260 -148 8 3 13 2 9 -3 -3 -5 35 -19 84
-30 100 -24 288 -29 380 -11 353 68 617 306 727 655 27 85 29 100 28 260 -1
154 -3 178 -27 253 -48 153 -116 271 -220 382 -63 67 -145 132 -157 125 -6 -4
-9 -1 -8 5 7 27 -223 127 -345 149 -49 9 -252 12 -297 5z m290 -263 c41 -11
79 -17 84 -14 6 4 8 3 4 -1 -4 -4 28 -25 71 -47 86 -43 186 -132 243 -216 19
-29 38 -50 43 -45 5 4 5 2 1 -5 -4 -7 2 -29 12 -50 44 -89 57 -154 57 -283 0
-160 -26 -246 -113 -379 -37 -55 -128 -151 -144 -151 -5 0 -6 -5 -3 -10 4 -6
3 -9 -2 -8 -4 1 -28 -10 -53 -24 -119 -71 -218 -98 -355 -98 -157 0 -287 42
-403 130 -28 21 -54 35 -59 32 -4 -4 -5 -3 -2 1 8 10 -42 63 -56 59 -5 -2 -7
0 -3 4 4 4 -6 24 -23 45 -40 51 -103 190 -119 264 -17 79 -15 210 6 293 8 37
34 105 57 152 23 47 41 88 39 93 -1 4 2 6 6 5 5 -2 32 23 61 54 52 57 165 139
209 153 12 3 20 9 18 13 -2 4 6 8 17 9 12 1 54 11 92 22 93 26 219 27 315 2z"/>
<path d="M12130 9581 c-293 -69 -526 -256 -645 -514 -65 -142 -80 -214 -80
-392 1 -186 13 -249 79 -390 73 -156 170 -272 307 -370 71 -50 209 -122 209
-108 0 3 6 1 13 -5 6 -5 39 -18 72 -28 49 -16 92 -19 240 -19 168 0 186 2 265
27 140 45 319 145 303 171 -4 6 -1 7 6 2 15 -9 93 63 84 78 -3 6 -1 7 4 4 14
-9 75 61 67 75 -4 6 -3 8 3 5 23 -14 138 205 167 318 52 204 37 405 -45 599
-16 38 -37 75 -47 83 -9 8 -11 11 -4 8 20 -11 2 20 -59 102 -58 78 -138 155
-152 146 -6 -3 -7 -1 -3 5 4 6 -6 19 -21 29 -15 10 -36 25 -46 35 -35 31 -202
108 -282 129 -113 30 -331 35 -435 10z m385 -259 c33 -11 76 -27 95 -35 52
-23 171 -109 207 -150 17 -20 34 -34 37 -31 3 2 4 1 1 -3 -3 -3 3 -16 14 -27
20 -22 111 -192 106 -198 -2 -2 3 -28 11 -58 16 -64 18 -216 3 -280 -6 -25
-12 -52 -14 -60 -2 -8 -14 -41 -28 -72 -14 -31 -23 -59 -19 -62 3 -3 1 -6 -5
-6 -9 0 -52 -61 -57 -80 -4 -16 -130 -126 -179 -156 -33 -21 -54 -40 -51 -46
4 -6 2 -8 -4 -4 -6 3 -51 -7 -100 -24 -78 -26 -104 -30 -199 -30 -119 0 -216
21 -304 66 -27 13 -54 22 -60 19 -5 -4 -8 -2 -7 4 4 13 -63 62 -75 54 -6 -3
-7 -1 -4 4 8 13 -17 36 -28 25 -5 -4 -5 -2 -2 4 8 14 -46 67 -58 57 -4 -5 -5
-3 -1 4 3 6 -6 27 -22 45 -33 39 -85 152 -106 233 -20 77 -15 269 9 345 25 81
70 168 120 231 24 31 42 59 40 63 -3 3 -2 4 2 1 3 -3 24 12 47 33 23 21 82 58
131 82 50 25 92 48 95 51 3 3 14 6 25 6 11 1 40 6 65 12 67 15 244 6 315 -17z"/>
<path d="M8134 7440 c-11 -4 -33 -22 -47 -40 -25 -29 -27 -39 -27 -113 1 -224
73 -511 180 -717 185 -355 498 -638 866 -783 230 -91 501 -130 738 -108 172
16 417 72 451 102 5 5 16 9 25 9 22 0 214 100 295 154 133 89 209 152 200 166
-3 5 0 8 7 5 24 -9 174 161 275 310 84 125 175 333 219 501 17 65 41 235 47
327 6 86 -5 125 -44 163 l-30 29 -1567 2 c-862 1 -1576 -2 -1588 -7z m2968
-245 c2 -3 -2 -46 -10 -97 -17 -112 -72 -288 -118 -380 -19 -38 -31 -68 -27
-68 5 0 3 -4 -3 -8 -6 -4 -28 -34 -49 -67 -89 -139 -241 -299 -374 -393 -39
-27 -67 -52 -63 -56 3 -4 -2 -4 -12 0 -15 6 -17 4 -11 -7 4 -8 5 -11 0 -7 -8
8 -144 -58 -156 -75 -3 -5 -8 -7 -10 -6 -7 6 -179 -56 -179 -64 0 -4 -4 -6
-10 -2 -5 3 -40 -2 -77 -10 -37 -9 -102 -18 -143 -21 -41 -2 -88 -7 -103 -9
-41 -7 -269 13 -345 31 -162 36 -304 96 -454 189 -39 24 -75 42 -80 39 -5 -3
-7 0 -6 6 2 7 -5 17 -15 23 -10 7 -39 31 -64 54 -26 23 -50 40 -55 37 -5 -3
-7 -2 -6 3 4 12 -104 133 -113 127 -4 -2 -11 1 -15 7 -4 8 -3 9 4 5 20 -12 13
6 -10 28 -13 12 -32 37 -42 56 -10 19 -26 44 -35 55 -9 11 -32 52 -51 90 -19
39 -37 72 -40 75 -3 3 -6 10 -7 15 -1 6 -14 41 -28 80 -32 87 -63 215 -71 294
l-7 61 1390 0 c764 0 1392 -2 1395 -5z"/>
</g>
</svg>
